<?xml version="1.0" encoding="UTF-8"?>
<svg width="24px" height="24px" viewBox="0 0 24 24" version="1.1" xmlns="http://www.w3.org/2000/svg">
    <circle fill="#E15B9F" cx="12" cy="12" r="12"/>
    <path fill="#FFFFFF" d="M16,10 C16,7.8 14.2,6 12,6 C9.8,6 8,7.8 8,10 C8,12 9.5,13.6 11.5,13.9 L11.5,15 L9.5,15 L9.5,17 L11.5,17 L11.5,18 L12.5,18 L12.5,17 L14.5,17 L14.5,15 L12.5,15 L12.5,13.9 C14.5,13.6 16,12 16,10 Z M12,12 C10.9,12 10,11.1 10,10 C10,8.9 10.9,8 12,8 C13.1,8 14,8.9 14,10 C14,11.1 13.1,12 12,12 Z"/>
</svg> 